<svg xmlns="http://www.w3.org/2000/svg" viewBox="0 0 512 369"><defs><style>.cls-1{fill:#fff;}.cls-2{font-size:322.44px;font-family:comicandy, comic andy;}.cls-2,.cls-3{fill:#f39191;}</style></defs><title>cloud</title><g id="Layer_3" data-name="Layer 3"><rect class="cls-1" x="3" y="1.51" width="507" height="367.49" rx="57.49" ry="57.49"/></g><g id="Layer_2" data-name="Layer 2"><text class="cls-2" transform="translate(364.25 249.88) scale(0.64 1)">w</text><text class="cls-2" transform="translate(205.21 249.88) scale(0.64 1)">w</text><text class="cls-2" transform="translate(46.17 249.88) scale(0.64 1)">w</text><path class="cls-3" d="M432.33,440.5H472c22.06,0,40-31.24,40-69.62V141.12c0-38.38-17.95-69.62-40-69.62H168c-5.52,0-10,7.79-10,17.41s4.48,17.4,10,17.4H472c11,0,20,15.62,20,34.81V370.88c0,19.19-9,34.81-20,34.81H424a6,6,0,0,0-.85.07L40,405.69c-11,0-20-15.62-20-34.81V141.12c0-19.19,9-34.81,20-34.81H81c5.53,0,10-7.79,10-17.4S86.52,71.5,81,71.5H40c-22,0-40,31.24-40,69.62V370.88c0,38.39,18,69.62,40,69.62H187.68M310,325.62" transform="translate(0 -71.5)"/><path class="cls-3" d="M124,107a17,17,0,1,0-12-5A17.12,17.12,0,0,0,124,107Z" transform="translate(0 -71.5)"/></g></svg>