<svg id="Layer_5" data-name="Layer 5" xmlns="http://www.w3.org/2000/svg" viewBox="0 0 460.32 376.45"><defs><style>.cls-1{fill:#fff;}.cls-2{fill:#f4a9a8;stroke:#f4a9a8;stroke-miterlimit:10;stroke-width:8px;}</style></defs><title>layout</title><polygon class="cls-1" points="359.96 103.38 353.66 58.06 446.66 134.38 400.16 246.38 382.66 194.38 348.66 198.38 311.66 237.86 299.66 280.38 284.66 211.38 304.66 151.38 335.66 119.4 359.96 103.38"/><rect class="cls-1" x="57.78" y="107.48" width="332.04" height="321.21" rx="51.71" ry="51.71" transform="translate(-84.66 -26.63) rotate(-12.13)"/><path class="cls-2" d="M390.91,131.4a5.29,5.29,0,0,0-7-.23c-2,1.71-2.89,4.87-2.2,8l10.73,49.47a114.06,114.06,0,0,0-12.74,4.12l-14.08-64.9c-.22-1-.47-2.06-.74-3.07a10.24,10.24,0,0,0-1.13-3.78c-8.38-25.43-30-41.09-50.56-36.68L68.56,137.42C47.94,141.93,34.77,165.27,37.77,192a10.26,10.26,0,0,0,.53,3.76c.17,1,.36,2,.58,3L84.22,407.8C86.86,420,92.79,431.15,101,439.2a8.13,8.13,0,0,0,1.57,1.72,6.69,6.69,0,0,0,1.09.73c10,8.6,21.89,12.1,33,9.67l244.62-53.05c11.13-2.41,20.54-10.52,26-22.45a7.48,7.48,0,0,0,1.42-3.34c4.1-10.72,4.89-23.3,2.23-35.54l-11.84-54.55a63,63,0,0,1,13-3.13l11.09,51.16c.69,3.16,2.8,5.68,5.35,6.39a5.31,5.31,0,0,0,6.29-3.16l54.05-112.32a9.63,9.63,0,0,0-2.42-11ZM71.7,147.59l244.62-53c13.72-3,28.21,6.83,34.67,23.41L248.35,292.29c-7.21,12.32-21.09,15.34-32.76,7.12l-165.74-116C48.81,165.57,58,150.6,71.7,147.59ZM133,430.27a25.47,25.47,0,0,1-18.9-3.62L167,314.3a9.62,9.62,0,0,0-2.5-11,5.35,5.35,0,0,0-8.62,2L103.51,416.53a45.8,45.8,0,0,1-7.31-16.81L53.61,203.37,210.27,313c17.3,12.19,37.88,7.71,48.57-10.56l97-164.8,11.93,55c-21.46,11.47-31.49,26.43-33.38,29.51v0c-10.45,17.11-17.09,37.61-19.34,59.69L304.57,273a5.35,5.35,0,0,0-8.67,1.78,9.6,9.6,0,0,0,2.32,11.06l16,13.51c0,3.3.1,6.61.3,9.95a180.87,180.87,0,0,0,8.61,45.79l0,.07a3.62,3.62,0,0,0,.13.35l3.9,10.73c1.13,3.12,3.64,5.22,6.28,5.27s4.86-2,5.57-5l2.43-10.58a170.53,170.53,0,0,1,8.29-26.55l43.55,36.77a25.46,25.46,0,0,1-15.66,11.08Zm265.46-96.11a45.87,45.87,0,0,1,.29,18.4l-42.87-36.21c7.8-14.64,18.56-26.3,31.36-33.94ZM431,303.41l-8.51-39.22c-.83-3.83-3.71-6.62-6.81-6.59a69.93,69.93,0,0,0-27,6.33,3.68,3.68,0,0,0-.45.21c-19.27,8.73-43.28,29-56.52,75.95a168.07,168.07,0,0,1-4.62-30.34c-1.74-29,4.19-55,17.64-77.24a3.3,3.3,0,0,0,.18-.32c.64-1,16.56-26.08,55.53-34.53l1.13-.25c3.38-.73,5.36-4.82,4.43-9.13l-8.33-38.39,76.68,63.34Z" transform="translate(-33.34 -79.62)"/></svg>