<svg id="Layer_4" data-name="Layer 4" xmlns="http://www.w3.org/2000/svg" viewBox="0 0 458.16 315.07"><defs><style>.cls-1{fill:#ffe5e2;}.cls-2{fill:#f39191;}.cls-3{fill:#fff;}</style></defs><title>life-buoy</title><path class="cls-1" d="M136.24,403.25a14.51,14.51,0,0,1-7.08-12.63V346.85C68.84,339.71,20.88,285,20.88,218.76c0-71.08,55.09-128.9,121.7-128.9H357.34C424,89.86,479,147.68,479,218.76S424,347.65,357.34,347.65H227.18L150,402.53A12.74,12.74,0,0,1,136.24,403.25Z" transform="translate(-20.88 -89.86)"/><path class="cls-2" d="M357.34,89.86H250V347.65H357.34C424,347.65,479,289.83,479,218.76S424,89.86,357.34,89.86Z" transform="translate(-20.88 -89.86)"/><path class="cls-3" d="M276.81,147.15c-7.42,0-13.43,6.4-13.43,14.32V276c0,7.92,6,14.33,13.43,14.33S290.23,284,290.23,276V161.47C290.23,153.55,284.23,147.15,276.81,147.15Z" transform="translate(-20.88 -89.86)"/><path class="cls-3" d="M330.5,147.15c-7.42,0-13.43,6.4-13.43,14.32v57.29c0,7.91,6,14.32,13.43,14.32s13.42-6.41,13.42-14.32V161.47C343.92,153.55,337.92,147.15,330.5,147.15Z" transform="translate(-20.88 -89.86)"/><path class="cls-3" d="M223.12,147.15c-7.42,0-13.43,6.4-13.43,14.32v43H182.85v-43c0-7.92-6-14.32-13.42-14.32S156,153.55,156,161.47V276c0,7.92,6,14.33,13.43,14.33S182.85,284,182.85,276v-43h26.84v43c0,7.92,6,14.33,13.43,14.33S236.54,284,236.54,276V161.47C236.54,153.55,230.54,147.15,223.12,147.15Z" transform="translate(-20.88 -89.86)"/><ellipse class="cls-3" cx="309.61" cy="186.18" rx="13.42" ry="14.32"/></svg>