<svg id="Layer_3" data-name="Layer 3" xmlns="http://www.w3.org/2000/svg" viewBox="0 0 335 334.23"><defs><style>.cls-1{fill:#fff;}.cls-2{fill:#f39191;}</style></defs><title>map-pin</title><polygon class="cls-1" points="13.03 85.74 93.99 85.74 125.63 132.65 321.04 132.65 321.04 213.19 281.03 255.37 265.29 298.47 227.99 324.14 51.18 324.14 13.03 282.88 13.03 85.74"/><polygon class="cls-1" points="131.21 16.05 203.79 16.05 203.79 55.48 167.5 85.74 131.21 50.89 131.21 16.05"/><path class="cls-2" d="M291,71.5a37.55,37.55,0,0,0-16.93,4,38.71,38.71,0,0,0-17.27-4h0a37.83,37.83,0,0,0-27.17,64.56l34.17,34.19a14,14,0,0,0,19.78,0l34.19-34.19A37.82,37.82,0,0,0,291,71.5Zm7,44.88-24.33,24.31-24.29-24.31a10,10,0,0,1,0-14.12,10.89,10.89,0,0,1,14.82,0,14,14,0,0,0,9.88,4.09h0a14,14,0,0,0,9.88-4.09,9.86,9.86,0,0,1,7-2.91h0a9.8,9.8,0,0,1,7,2.91A10,10,0,0,1,298,116.38Z" transform="translate(-107 -71.5)"/><path class="cls-2" d="M428,190.22H262.84a74.57,74.57,0,0,0-20.1,2.79,69.5,69.5,0,0,0-67.9-54H121A14,14,0,0,0,107,153V331.64a74.25,74.25,0,0,0,74.26,74.09H326.42a74.25,74.25,0,0,0,74.26-74.09v-1a74.23,74.23,0,0,0,37.13-42,5.25,5.25,0,0,0,.22-.55c.07-.22.18-.42.25-.63A72.88,72.88,0,0,0,442,264.31V204.15A13.94,13.94,0,0,0,428,190.22Zm-14,27.85v13.64H360.19a13.93,13.93,0,1,0,0,27.85h53.89v4.75a47.15,47.15,0,0,1-.37,4.78h-91a13.93,13.93,0,1,0,0,27.86h77.84a46.51,46.51,0,0,1-18.32,11.33,45.41,45.41,0,0,1-14.53,2.34H262.84a46.38,46.38,0,0,1-46.34-46.31,47.89,47.89,0,0,1,.37-5.89,46.09,46.09,0,0,1,21.24-33.18,45.47,45.47,0,0,1,24.73-7.17ZM326.43,377.88H181.26a46.34,46.34,0,0,1-46.34-46.24V166.9h39.92c22.41,0,40.74,17.49,41.73,39.2v.29c-.21.17-.39.37-.6.54-.89.71-1.69,1.49-2.54,2.25-1.38,1.22-2.74,2.45-4,3.76-.84.87-1.62,1.79-2.43,2.7-1.14,1.31-2.26,2.63-3.31,4-.75,1-1.45,2-2.15,3-1,1.41-1.89,2.84-2.74,4.31-.63,1.07-1.23,2.13-1.8,3.23-.79,1.52-1.51,3.08-2.2,4.66-.48,1.1-1,2.2-1.39,3.34-.63,1.67-1.16,3.38-1.66,5.1-.33,1.1-.69,2.18-1,3.3-.46,1.92-.8,3.88-1.11,5.84-.16,1-.38,1.91-.5,2.89a76.36,76.36,0,0,0-.56,9,74.29,74.29,0,0,0,74.25,74.16h104.9c1.52,0,3,0,4.55-.14A46.39,46.39,0,0,1,326.43,377.88Z" transform="translate(-107 -71.5)"/><path class="cls-2" d="M171.28,186.71a17.44,17.44,0,1,0,17.47,17.43A17.46,17.46,0,0,0,171.28,186.71Z" transform="translate(-107 -71.5)"/></svg>